{
  "accessors": [
    {
      "bufferView": 2,
      "componentType": 5126,
      "count": 374,
      "max": [
        1.0609190464019775,
        356.7902526855469,
        1.4910229444503784
      ],
      "min": [
        -0.2141769975423813,
        356.1805114746094,
        0.8540310263633728
      ],
      "type": "VEC3"
    },
    {
      "bufferView": 2,
      "byteOffset": 4488,
      "componentType": 5126,
      "count": 374,
      "max": [
        0.9813951253890991,
        0.9778536558151245,
        0.9999616146087646
      ],
      "min": [
        -0.9996148943901062,
        -0.9779008626937866,
        -1.0
      ],
      "type": "VEC3"
    },
    {
      "bufferView": 1,
      "componentType": 5126,
      "count": 374,
      "max": [
        0.9416980147361755,
        0.9492509961128235
      ],
      "min": [
        0.04215399920940399,
        0.0032210000790655613
      ],
      "type": "VEC2"
    },
    {
      "bufferView": 0,
      "componentType": 5125,
      "count": 1506,
      "type": "SCALAR"
    }
  ],
  "asset": {
    "extras": {
      "author": "ItsTifaLockhart (https://sketchfab.com/KateGirl.SK)",
      "license": "CC-BY-4.0 (http://creativecommons.org/licenses/by/4.0/)",
      "source": "https://sketchfab.com/3d-models/neko-atsume-brown-cat-545e94f8905244b996e4623db5a8fd3f",
      "title": "Neko Atsume Brown Cat"
    },
    "generator": "Sketchfab-15.70.0",
    "version": "2.0"
  },
  "bufferViews": [
    {
      "buffer": 0,
      "byteLength": 6024,
      "name": "floatBufferViews",
      "target": 34963
    },
    {
      "buffer": 0,
      "byteLength": 2992,
      "byteOffset": 6024,
      "byteStride": 8,
      "name": "floatBufferViews",
      "target": 34962
    },
    {
      "buffer": 0,
      "byteLength": 8976,
      "byteOffset": 9016,
      "byteStride": 12,
      "name": "floatBufferViews",
      "target": 34962
    }
  ],
  "buffers": [
    {
      "byteLength": 17992,
      "uri": "scene.bin"
    }
  ],
  "images": [
    {
      "uri": "textures/Materil.295_baseColor.png"
    }
  ],
  "materials": [
    {
      "doubleSided": true,
      "name": "Materil.295",
      "pbrMetallicRoughness": {
        "baseColorTexture": {
          "index": 0
        },
        "metallicFactor": 0.0,
        "roughnessFactor": 0.6
      }
    }
  ],
  "meshes": [
    {
      "name": "Object_0",
      "primitives": [
        {
          "attributes": {
            "NORMAL": 1,
            "POSITION": 0,
            "TEXCOORD_0": 2
          },
          "indices": 3,
          "material": 0,
          "mode": 4
        }
      ]
    }
  ],
  "nodes": [
    {
      "children": [
        1
      ],
      "matrix": [
        2.220446049250313e-16,
        -2.220446049250313e-16,
        1.0,
        0.0,
        1.0,
        4.930380657631324e-32,
        -2.220446049250313e-16,
        0.0,
        0.0,
        1.0,
        2.220446049250313e-16,
        0.0,
        0.0,
        0.0,
        0.0,
        1.0
      ],
      "name": "Sketchfab_model"
    },
    {
      "children": [
        2
      ],
      "name": "bcdb4befa9a04ce698be68c272fcee62.obj.cleaner.materialmerger.gles"
    },
    {
      "mesh": 0,
      "name": "Object_2"
    }
  ],
  "samplers": [
    {
      "magFilter": 9729,
      "minFilter": 9987,
      "wrapS": 10497,
      "wrapT": 10497
    }
  ],
  "scene": 0,
  "scenes": [
    {
      "name": "Sketchfab_Scene",
      "nodes": [
        0
      ]
    }
  ],
  "textures": [
    {
      "sampler": 0,
      "source": 0
    }
  ]
}
